<svg id="Layer_1" data-name="Layer 1" xmlns="http://www.w3.org/2000/svg" viewBox="0 0 512 512"><title>cricle</title><path d="M256,75.45V0C169.86,0,93.57,42.8,47.14,108.23l62.77,41.84A180.47,180.47,0,0,1,256,75.45Z" fill="#fc6"/><path d="M256,75.45c70.55,0,131.71,40.71,161.43,99.84l67.46-33.74C442.8,57.71,356,0,256,0h0V75.45Z" fill="#ed7161"/><path d="M256,436.55c-99.57,0-180.57-81-180.57-180.55a179.66,179.66,0,0,1,34.47-105.92L47.14,108.23A254.6,254.6,0,0,0,0,256C0,397.15,114.84,512,256,512a254.42,254.42,0,0,0,117.43-28.64l-42.21-63.31A179.33,179.33,0,0,1,256,436.55Z" fill="#48cfad"/><path d="M417.43,175.29A179.47,179.47,0,0,1,436.55,256c0,72.71-43.24,135.48-105.32,164.06l42.21,63.31C455.65,440.72,512,354.84,512,256a254.35,254.35,0,0,0-27.11-114.44Z" fill="#656d78"/></svg>